<?xml version="1.0" encoding="UTF-8" standalone="no" ?>
<!DOCTYPE svg PUBLIC "-//W3C//DTD SVG 1.1//EN" "http://www.w3.org/Graphics/SVG/1.1/DTD/svg11.dtd">
<svg xmlns="http://www.w3.org/2000/svg" xmlns:xlink="http://www.w3.org/1999/xlink" version="1.1" width="1280" height="1024" viewBox="0 0 1280 1024" xml:space="preserve">
<desc>Created with Fabric.js 5.3.0</desc>
<defs>
</defs>
<g transform="matrix(1 0 0 1 640 512)" id="background-logo"  >
<rect style="stroke: none; stroke-width: 0; stroke-dasharray: none; stroke-linecap: butt; stroke-dashoffset: 0; stroke-linejoin: miter; stroke-miterlimit: 4; fill: rgb(255,255,255); fill-opacity: 0; fill-rule: nonzero; opacity: 1;"  paint-order="stroke"  x="-640" y="-512" rx="0" ry="0" width="1280" height="1024" />
</g>
<g transform="matrix(1.9211538461538462 0 0 1.9211538461538462 640 435.9531563876112)" id="logo-logo"  >
<g style=""  paint-order="stroke"   >
		<g transform="matrix(0.5050910787026728 -0.42382173785034855 0.4238217378503484 0.5050910787026724 -26.791960734871736 -53.16501602277913)"  >
<linearGradient id="SVGID_24_549322" gradientUnits="userSpaceOnUse" gradientTransform="matrix(-0.4999999999999998 0.8660254037844387 -0.8660254037844387 -0.4999999999999998 1334.5459017 654.7762225)"  x1="359.1762334" y1="595.6127634" x2="398.2400632" y2="792.4638272">
<stop offset="27.79752%" style="stop-color:rgb(202,37,157);stop-opacity: 1"/>
<stop offset="79.01719%" style="stop-color:rgb(10,148,213);stop-opacity: 1"/>
</linearGradient>
<path style="stroke: none; stroke-width: 1; stroke-dasharray: none; stroke-linecap: butt; stroke-dashoffset: 0; stroke-linejoin: miter; stroke-miterlimit: 4; fill: url(#SVGID_24_549322); fill-rule: nonzero; opacity: 1;"  paint-order="stroke"  transform=" translate(-503.4991144945461, -623.5712689847016)" d="M 548.7245204 558.4387366 C 531.2255276 556.4878714 515.5299792999999 557.3333927 501.57521719999994 560.0037497 C 509.86762989999994 565.1608891 517.4167835 570.3854203 524.2922202 575.6367266999999 C 586.8505721 623.3825803999999 593.6609753 672.4865183999999 593.6609753 672.4865183999999 C 591.0687534 632.0764760999999 574.8989635 591.7833249999999 548.7245204000001 558.4387365999999 Z M 492.5307956 609.2492255 C 531.3702743 620.3571578 566.3000205 642.9371408 586.6700715 676.1751971 C 571.7263472999999 640.7584378 545.6106364999999 609.2722051 512.9822816999999 585.7461343 C 502.6460748999999 578.2889842 491.66129529999995 571.635127 480.1689119999999 565.9006262 C 455.41205419999994 574.9206544 437.7192179999999 589.4855895000001 426.3860006999999 601.475283 C 448.4254386999999 600.4819104 471.0800016999999 603.123061 492.5307955999999 609.2492254 Z M 470.0459431 660.1340738 C 510.8827396 655.5827211 553.9278981 662.6062757 587.8970014 689.7700629 C 587.8970014 689.7700629 548.312462 637.3324963 483.5372347 623.3864665 C 482.8916284 623.2446797 482.2410477 623.1115088 481.5817677 622.9733858 C 461.431611 618.9145201 438.8882374 618.6008032 414.3812405 624.7282206 C 412.35868899999997 641.3313581 413.023836 657.4192801 418.6104376 671.9030362999999 C 433.2122041 667.1120348999999 454.1069096 661.9013237999999 470.045943 660.1340739 Z" stroke-linecap="round" />
</g>
		<g transform="matrix(0.5050910787026728 -0.42382173785034855 0.4238217378503484 0.5050910787026724 -41.92667912723556 -48.15473071305951)"  >
<linearGradient id="SVGID_25_549323" gradientUnits="userSpaceOnUse" gradientTransform="matrix(-0.4999999999999998 0.8660254037844387 -0.8660254037844387 -0.4999999999999998 1334.5459017 654.7762225)"  x1="414.8946023" y1="821.6390317" x2="365.8733258" y2="687.5964786">
<stop offset="4.47181%" style="stop-color:rgb(57,44,177);stop-opacity: 1"/>
<stop offset="65.74983%" style="stop-color:rgb(35,134,206);stop-opacity: 1"/>
</linearGradient>
<path style="stroke: none; stroke-width: 1; stroke-dasharray: none; stroke-linecap: butt; stroke-dashoffset: 0; stroke-linejoin: miter; stroke-miterlimit: 4; fill: url(#SVGID_25_549323); fill-rule: nonzero; opacity: 1;"  paint-order="stroke"  transform=" translate(-481.03088704454615, -614.6377556347015)" d="M 548.7245204 558.4387366 C 548.7245204 558.4387366 537.9542789999999 564.3333322 524.2922202 575.6367266999999 C 517.4167835 570.3854203 509.8676299 565.160889 501.5752172 560.0037497 C 515.5299793 557.3333927 531.2255276 556.4878713999999 548.7245204 558.4387366 Z M 512.9822817 585.7461343 C 502.64607490000003 578.2889842 491.66129530000006 571.635127 480.16891200000003 565.9006262 C 455.41205420000006 574.9206544 437.719218 589.4855895000001 426.3860007 601.475283 C 448.42543870000003 600.4819104 471.0800017 603.123061 492.53079560000003 609.2492254 C 498.97473370000006 600.2679289 506.07235590000005 592.4145501 512.9822817 585.7461342 Z M 470.0459431 660.1340738 C 472.5818852 646.621698 477.4354565 634.3550808 483.5372347 623.3864664 C 482.8916284 623.2446796 482.2410477 623.1115087000001 481.5817677 622.9733857 C 461.431611 618.91452 438.8882374 618.6008031 414.3812405 624.7282205 C 412.35868899999997 641.331358 413.023836 657.4192800000001 418.6104376 671.9030362 C 433.2122041 667.1120348 454.1069096 661.9013236999999 470.045943 660.1340738 Z" stroke-linecap="round" />
</g>
		<g transform="matrix(0.5050910787026728 -0.42382173785034855 0.4238217378503484 0.5050910787026724 44.84876950085709 10.321261688603272)"  >
<linearGradient id="SVGID_26_549324" gradientUnits="userSpaceOnUse" gradientTransform="matrix(-0.4999999999999998 -0.8660254037844387 0.8660254037844387 -0.4999999999999998 100.2201084 1483.1387646)"  x1="359.1762334" y1="595.6127634" x2="398.2400632" y2="792.4638272">
<stop offset="27.79752%" style="stop-color:rgb(202,37,157);stop-opacity: 1"/>
<stop offset="79.01719%" style="stop-color:rgb(10,148,213);stop-opacity: 1"/>
</linearGradient>
<path style="stroke: none; stroke-width: 1; stroke-dasharray: none; stroke-linecap: butt; stroke-dashoffset: 0; stroke-linejoin: miter; stroke-miterlimit: 4; fill: url(#SVGID_26_549324); fill-rule: nonzero; opacity: 1;"  paint-order="stroke"  transform=" translate(-524.8410416210462, -767.1720044035658)" d="M 576.5615091 850.7662286 C 587.0005043 836.5870889 594.1160355 822.5715847 598.7808196 809.1512276999999 C 590.1683995 813.7540981 581.869246 817.6795913 573.8837629 821.0082408999999 C 501.25546469999995 851.3124359999999 455.32500539999995 832.6584492 455.32500539999995 832.6584492 C 491.6172395 850.6185403 534.5970269999999 856.761667 576.5615091999999 850.7662286 Z M 560.6551973 776.6957909 C 531.6157064 804.7778000000001 494.59599440000005 823.737856 455.62596780000007 824.7598095000001 C 493.7696432000001 829.5265444 534.0953759 822.6527917000001 570.7837283000001 806.158843 C 582.4099131000002 800.9360004 593.6647123000001 794.7498307000001 604.3771273000001 787.6643853 C 608.9439827000001 761.7143034000001 605.1767969000001 739.1093902 600.4600264000001 723.2996894 C 590.3005933000001 742.8830889000001 576.6860083 761.1819407 560.6551973 776.6957909 Z M 527.8300523 731.7809133 C 511.35324110000005 769.4222929 483.7480851 803.1887161999999 443.23900380000003 819.0249291 C 443.23900380000003 819.0249291 508.4435383 810.9624957 552.9087681000001 761.8385182 C 553.3543622000001 761.3503000999999 553.7949820000001 760.8534662 554.2442400000001 760.3515745 C 567.8343992000001 744.9304596999999 579.3777728000001 725.564184 586.3247721000001 701.2767934 C 572.9573090000001 691.2236436 558.6921864000001 683.7557168999999 543.3555847000001 681.3519777 C 540.2038304000001 696.3929791 534.2690858000001 717.0936805 527.8300524000001 731.7809133000001 Z" stroke-linecap="round" />
</g>
		<g transform="matrix(0.5050910787026728 -0.42382173785034855 0.4238217378503484 0.5050910787026724 65.7401897464336 -8.166617371721713)"  >
<linearGradient id="SVGID_27_549325" gradientUnits="userSpaceOnUse" gradientTransform="matrix(-0.4999999999999998 -0.8660254037844387 0.8660254037844387 -0.4999999999999998 100.2201084 1483.1387646)"  x1="414.8946023" y1="821.6390317" x2="365.8733258" y2="687.5964786">
<stop offset="4.47181%" style="stop-color:rgb(57,44,177);stop-opacity: 1"/>
<stop offset="65.74983%" style="stop-color:rgb(35,134,206);stop-opacity: 1"/>
</linearGradient>
<path style="stroke: none; stroke-width: 1; stroke-dasharray: none; stroke-linecap: butt; stroke-dashoffset: 0; stroke-linejoin: miter; stroke-miterlimit: 4; fill: url(#SVGID_27_549325); fill-rule: nonzero; opacity: 1;"  paint-order="stroke"  transform=" translate(-567.1365658710461, -766.0591032)" d="M 576.5615091 850.7662286 C 576.5615091 850.7662286 576.8417602999999 838.4916281 573.8837629 821.008241 C 581.869246 817.6795913 590.1683995999999 813.7540982 598.7808196 809.1512278 C 594.1160355 822.5715848 587.0005043 836.587089 576.5615091 850.7662287 Z M 570.7837283 806.158843 C 582.4099131 800.9360004 593.6647123 794.7498307000001 604.3771273 787.6643853 C 608.9439827 761.7143034000001 605.1767969 739.1093902 600.4600264 723.2996894 C 590.3005933 742.8830889000001 576.6860082999999 761.1819407 560.6551972999999 776.6957909 C 565.2112592 786.7670533 568.4636736 796.8404638000001 570.7837282999999 806.158843 Z M 527.8300523 731.7809133 C 538.2641419 740.7332915 546.4605585 751.0699161 552.908768 761.8385182 C 553.3543621 761.3503000999999 553.7949819 760.8534662 554.2442399 760.3515745 C 567.8343991 744.9304596999999 579.3777727 725.564184 586.324772 701.2767934 C 572.9573089 691.2236436 558.6921863 683.7557168999999 543.3555846 681.3519777 C 540.2038303 696.3929791 534.2690857 717.0936805 527.8300523 731.7809133000001 Z" stroke-linecap="round" />
</g>
		<g transform="matrix(0.5050910787026728 -0.42382173785034855 0.4238217378503484 0.5050910787026724 -42.196042135096945 43.73127306590959)"  >
<linearGradient id="SVGID_28_549326" gradientUnits="userSpaceOnUse" gradientTransform="matrix(1 0 0 1 0 0)"  x1="359.1762334" y1="595.6127634" x2="398.2400632" y2="792.4638272">
<stop offset="27.79752%" style="stop-color:rgb(202,37,157);stop-opacity: 1"/>
<stop offset="79.01719%" style="stop-color:rgb(10,148,213);stop-opacity: 1"/>
</linearGradient>
<path style="stroke: none; stroke-width: 1; stroke-dasharray: none; stroke-linecap: butt; stroke-dashoffset: 0; stroke-linejoin: miter; stroke-miterlimit: 4; fill: url(#SVGID_28_549326); fill-rule: nonzero; opacity: 1;"  paint-order="stroke"  transform=" translate(-391.13998405, -721.1300048999999)" d="M 309.4799805 728.710022 C 316.5399781 744.8400269 325.1199951 758.0100098 334.4099732 768.7600098 C 334.7299805 759 335.4799805 749.8499756 336.5900269 741.2700196000001 C 346.6599732 663.2199708 385.7800293 632.7700196000001 385.7800293 632.7700196000001 C 352.0800171 655.2199708 325.27001950000005 689.3699952000001 309.4799805 728.7100220000001 Z M 381.5800171 751.9699707 C 371.7800293 712.7800293 373.86999510000004 671.2399902 392.46997070000003 636.9799805 C 369.27001950000005 667.6300049 355.05999760000003 705.9899903 351.00000000000006 746.0100098 C 349.71002200000004 758.6900025 349.4400024000001 771.5300293 350.21997070000003 784.3499756 C 370.40997310000006 801.2800293 391.86999510000004 809.3200073 407.91998290000004 813.1400146999999 C 396.039978 794.5499877999999 387.00000000000006 773.6099853999999 381.5800171 751.9699707999999 Z M 436.8900146 746 C 412.53002919999994 712.9099731 397.0900268 672.1199951 403.6300048 629.1199951 C 403.6300048 629.1199951 378.0100097 689.6199951 398.3200072 752.6900024 C 398.5200194 753.3200073 398.7299803 753.9500122000001 398.9400023 754.5900268 C 405.4999999 774.0700073 416.4999999 793.7499999 434.0599974 811.9099731 C 449.450012 805.3599853 463.0499876 796.7399902 472.7999876 784.6599731 C 461.3499754 774.4099731 446.3900145 758.9199829 436.8900145 746 Z" stroke-linecap="round" />
</g>
		<g transform="matrix(0.5050910787026728 -0.42382173785034855 0.4238217378503484 0.5050910787026724 -21.09183297318191 68.88229010219322)"  >
<linearGradient id="SVGID_29_549327" gradientUnits="userSpaceOnUse" gradientTransform="matrix(1 0 0 1 0 0)"  x1="414.8946023" y1="821.6390317" x2="365.8733258" y2="687.5964786">
<stop offset="4.47181%" style="stop-color:rgb(57,44,177);stop-opacity: 1"/>
<stop offset="65.74983%" style="stop-color:rgb(35,134,206);stop-opacity: 1"/>
</linearGradient>
<path style="stroke: none; stroke-width: 1; stroke-dasharray: none; stroke-linecap: butt; stroke-dashoffset: 0; stroke-linejoin: miter; stroke-miterlimit: 4; fill: url(#SVGID_29_549327); fill-rule: nonzero; opacity: 1;"  paint-order="stroke"  transform=" translate(-391.1399841, -770.92501835)" d="M 309.4799805 728.710022 C 309.4799805 728.710022 319.96997070000003 735.0900269 336.5900269 741.2700196 C 335.4799805 749.8499757 334.7299805 759.0000001 334.4099732 768.7600097999999 C 325.1199952 758.0100097999999 316.53997810000004 744.8400268999999 309.4799805 728.710022 Z M 351 746.0100098 C 349.710022 758.6900025 349.4400024 771.5300293 350.2199707 784.3499756 C 370.4099731 801.2800293 391.8699951 809.3200073 407.9199829 813.1400146999999 C 396.03997799999996 794.5499877999999 387 773.6099853999999 381.58001709999996 751.9699707999999 C 370.58001709999996 750.880005 360.22998049999995 748.6599732 350.99999999999994 746.0100098999999 Z M 436.8900146 746 C 423.9199829 750.5599976 410.8699951 752.4899902 398.3200073 752.6900024 C 398.5200195 753.3200073 398.7299804 753.9500122000001 398.94000239999997 754.5900268 C 405.49999999999994 774.0700073 416.49999999999994 793.7499999 434.05999749999995 811.9099731 C 449.4500121 805.3599853 463.0499877 796.7399902 472.7999877 784.6599731 C 461.34997549999997 774.4099731 446.3900146 758.9199829 436.8900146 746 Z" stroke-linecap="round" />
</g>
</g>
</g>
<g transform="matrix(1.9211538461538462 0 0 1.9211538461538462 641.1226469897291 712.6123717070677)" id="text-logo"  >
<g style=""  paint-order="stroke"   >
		<g transform="matrix(1 0 0 1 0 0)" id="text-logo-path-0"  >
<path style="stroke: none; stroke-width: 0; stroke-dasharray: none; stroke-linecap: butt; stroke-dashoffset: 0; stroke-linejoin: miter; stroke-miterlimit: 4; fill: rgb(35,134,206); fill-rule: nonzero; opacity: 1;"  paint-order="stroke"  transform=" translate(-179.34500000000003, 15.265)" d="M 9.11 0 L 2.65 0 L 2.65 -30.55 L 14.71 -30.55 Q 18.17 -30.55 20.62 -29.31 Q 23.07 -28.08 24.36 -25.84 Q 25.65 -23.6 25.65 -20.57 L 25.65 -20.57 Q 25.65 -17.52 24.34 -15.34 Q 23.03 -13.15 20.55 -11.99 Q 18.06 -10.83 14.54 -10.83 L 14.54 -10.83 L 6.47 -10.83 L 6.47 -16.02 L 13.5 -16.02 Q 15.35 -16.02 16.57 -16.53 Q 17.79 -17.03 18.4 -18.05 Q 19 -19.06 19 -20.57 L 19 -20.57 Q 19 -22.09 18.4 -23.13 Q 17.79 -24.18 16.56 -24.72 Q 15.33 -25.27 13.47 -25.27 L 13.47 -25.27 L 9.11 -25.27 L 9.11 0 Z M 12.19 -13.9 L 19.15 -13.9 L 26.74 0 L 19.61 0 L 12.19 -13.9 Z M 45.46 -23.57 L 37.79 0 L 30.87 0 L 41.42 -30.55 L 49.74 -30.55 L 60.27 0 L 53.35 0 L 45.7 -23.57 L 45.46 -23.57 Z M 37.36 -6.97 L 37.36 -12.01 L 53.71 -12.01 L 53.71 -6.97 L 37.36 -6.97 Z M 77.08 0 L 77.08 0 L 66.25 0 L 66.25 -30.55 L 77.17 -30.55 Q 81.77 -30.55 85.1 -28.72 Q 88.43 -26.89 90.22 -23.48 Q 92.02 -20.06 92.02 -15.3 L 92.02 -15.3 Q 92.02 -10.53 90.22 -7.1 Q 88.43 -3.67 85.08 -1.83 Q 81.73 0 77.08 0 Z M 72.71 -25.01 L 72.71 -5.53 L 76.81 -5.53 Q 79.67 -5.53 81.63 -6.56 Q 83.59 -7.58 84.59 -9.73 Q 85.58 -11.89 85.58 -15.3 L 85.58 -15.3 Q 85.58 -18.69 84.59 -20.84 Q 83.59 -22.98 81.64 -24 Q 79.69 -25.01 76.82 -25.01 L 76.82 -25.01 L 72.71 -25.01 Z M 110.32 -23.57 L 102.65 0 L 95.73 0 L 106.28 -30.55 L 114.6 -30.55 L 125.13 0 L 118.21 0 L 110.56 -23.57 L 110.32 -23.57 Z M 102.22 -6.97 L 102.22 -12.01 L 118.57 -12.01 L 118.57 -6.97 L 102.22 -6.97 Z M 137.57 0 L 131.11 0 L 131.11 -30.55 L 143.16 -30.55 Q 146.62 -30.55 149.07 -29.31 Q 151.53 -28.08 152.82 -25.84 Q 154.11 -23.6 154.11 -20.57 L 154.11 -20.57 Q 154.11 -17.52 152.79 -15.34 Q 151.48 -13.15 149 -11.99 Q 146.52 -10.83 143 -10.83 L 143 -10.83 L 134.93 -10.83 L 134.93 -16.02 L 141.95 -16.02 Q 143.8 -16.02 145.02 -16.53 Q 146.25 -17.03 146.85 -18.05 Q 147.46 -19.06 147.46 -20.57 L 147.46 -20.57 Q 147.46 -22.09 146.85 -23.13 Q 146.25 -24.18 145.02 -24.72 Q 143.79 -25.27 141.92 -25.27 L 141.92 -25.27 L 137.57 -25.27 L 137.57 0 Z M 140.64 -13.9 L 147.6 -13.9 L 155.2 0 L 148.07 0 L 140.64 -13.9 Z M 173.03 -30.55 L 179.49 -30.55 L 179.49 0 L 173.03 0 L 173.03 -30.55 Z M 206.24 -30.55 L 212.67 -30.55 L 212.67 0 L 207.09 0 L 193.8 -19.23 L 193.58 -19.23 L 193.58 0 L 187.12 0 L 187.12 -30.55 L 192.79 -30.55 L 205.98 -11.34 L 206.24 -11.34 L 206.24 -30.55 Z M 243.07 -21.76 L 236.88 -21.76 Q 236.7 -23.57 235.34 -24.56 Q 233.98 -25.56 231.66 -25.56 L 231.66 -25.56 Q 230.08 -25.56 228.99 -25.12 Q 227.9 -24.68 227.32 -23.91 Q 226.75 -23.13 226.75 -22.15 L 226.75 -22.15 Q 226.72 -21.33 227.1 -20.72 Q 227.48 -20.11 228.15 -19.67 Q 228.82 -19.23 229.7 -18.9 Q 230.58 -18.58 231.58 -18.36 L 231.58 -18.36 L 234.33 -17.7 Q 236.33 -17.26 238 -16.51 Q 239.67 -15.76 240.89 -14.68 Q 242.11 -13.59 242.79 -12.11 Q 243.47 -10.63 243.48 -8.73 L 243.48 -8.73 Q 243.47 -5.92 242.06 -3.87 Q 240.65 -1.82 238 -0.69 Q 235.36 0.43 231.63 0.43 L 231.63 0.43 Q 227.93 0.43 225.19 -0.7 Q 222.45 -1.83 220.93 -4.06 Q 219.4 -6.29 219.32 -9.59 L 219.32 -9.59 L 225.57 -9.59 Q 225.68 -8.05 226.46 -7.03 Q 227.24 -6.01 228.56 -5.5 Q 229.88 -4.98 231.55 -4.98 L 231.55 -4.98 Q 233.19 -4.98 234.41 -5.46 Q 235.62 -5.94 236.3 -6.79 Q 236.97 -7.64 236.97 -8.74 L 236.97 -8.74 Q 236.97 -9.77 236.36 -10.47 Q 235.76 -11.17 234.6 -11.66 Q 233.45 -12.16 231.78 -12.56 L 231.78 -12.56 L 228.45 -13.39 Q 224.59 -14.33 222.35 -16.33 Q 220.11 -18.33 220.13 -21.72 L 220.13 -21.72 Q 220.11 -24.49 221.61 -26.56 Q 223.11 -28.64 225.74 -29.8 Q 228.36 -30.96 231.7 -30.96 L 231.7 -30.96 Q 235.1 -30.96 237.65 -29.8 Q 240.19 -28.64 241.61 -26.56 Q 243.02 -24.49 243.07 -21.76 L 243.07 -21.76 Z M 250.12 -30.55 L 256.58 -30.55 L 256.58 0 L 250.12 0 L 250.12 -30.55 Z M 291.03 -20.67 L 284.47 -20.67 Q 284.15 -21.76 283.59 -22.6 Q 283.02 -23.45 282.21 -24.04 Q 281.39 -24.62 280.36 -24.94 Q 279.32 -25.25 278.07 -25.25 L 278.07 -25.25 Q 275.73 -25.25 273.96 -24.09 Q 272.19 -22.92 271.21 -20.71 Q 270.22 -18.49 270.22 -15.3 L 270.22 -15.3 Q 270.22 -12.11 271.19 -9.87 Q 272.16 -7.64 273.94 -6.47 Q 275.71 -5.29 278.13 -5.29 L 278.13 -5.29 Q 280.32 -5.29 281.88 -6.08 Q 283.44 -6.86 284.27 -8.29 Q 285.09 -9.72 285.09 -11.68 L 285.09 -11.68 L 286.41 -11.48 L 278.53 -11.48 L 278.53 -16.35 L 291.31 -16.35 L 291.31 -12.5 Q 291.31 -8.47 289.61 -5.59 Q 287.91 -2.7 284.93 -1.14 Q 281.95 0.42 278.1 0.42 L 278.1 0.42 Q 273.8 0.42 270.55 -1.48 Q 267.3 -3.39 265.49 -6.9 Q 263.68 -10.41 263.68 -15.24 L 263.68 -15.24 Q 263.68 -18.96 264.76 -21.87 Q 265.84 -24.79 267.79 -26.82 Q 269.75 -28.85 272.34 -29.9 Q 274.94 -30.96 277.96 -30.96 L 277.96 -30.96 Q 280.56 -30.96 282.8 -30.21 Q 285.03 -29.46 286.77 -28.08 Q 288.51 -26.71 289.61 -24.83 Q 290.72 -22.94 291.03 -20.67 L 291.03 -20.67 Z M 304.93 0 L 298.47 0 L 298.47 -30.55 L 304.93 -30.55 L 304.93 -17.94 L 318.04 -17.94 L 318.04 -30.55 L 324.48 -30.55 L 324.48 0 L 318.04 0 L 318.04 -12.62 L 304.93 -12.62 L 304.93 0 Z M 340.3 -25.22 L 330.95 -25.22 L 330.95 -30.55 L 356.04 -30.55 L 356.04 -25.22 L 346.69 -25.22 L 346.69 0 L 340.3 0 L 340.3 -25.22 Z" stroke-linecap="round" />
</g>
</g>
</g>
<g transform="matrix(1.9211538461538462 0 0 1.9211538461538462 641.9890491695803 440.1900657491939)" id="tagline-3ef5dce2-dab7-4a2e-a25a-ebbd3f8823b3-logo"  >
<g style=""  paint-order="stroke"   >
		<g transform="matrix(1 0 0 1 0 0)" id="tagline-3ef5dce2-dab7-4a2e-a25a-ebbd3f8823b3-logo-path-0"  >
<path style="stroke: none; stroke-width: 0; stroke-dasharray: none; stroke-linecap: butt; stroke-dashoffset: 0; stroke-linejoin: miter; stroke-miterlimit: 4; fill: rgb(35,134,206); fill-rule: nonzero; opacity: 1;"  paint-order="stroke"  transform=" translate(-16.814999999999998, 17.455)" d="M 2.64 0 L 11.08 0 L 11.08 -11.95 L 15.41 -11.95 L 21.78 0 L 30.99 0 L 23.74 -13.3 C 27.58 -15.03 29.8 -18.46 29.8 -23.28 C 29.8 -30.46 24.9 -34.91 17.06 -34.91 L 2.64 -34.91 Z M 11.08 -18.6 L 11.08 -28.11 L 15.24 -28.11 C 19.02 -28.11 21.05 -26.52 21.05 -23.28 C 21.05 -20.05 19.02 -18.6 15.24 -18.6 Z" stroke-linecap="round" />
</g>
</g>
</g>
</svg>