<?xml version="1.0" encoding="UTF-8" standalone="no" ?>
<!DOCTYPE svg PUBLIC "-//W3C//DTD SVG 1.1//EN" "http://www.w3.org/Graphics/SVG/1.1/DTD/svg11.dtd">
<svg xmlns="http://www.w3.org/2000/svg" xmlns:xlink="http://www.w3.org/1999/xlink" version="1.1" width="1280" height="1024" viewBox="0 0 1280 1024" xml:space="preserve">
<desc>Created with Fabric.js 5.3.0</desc>
<defs>
</defs>
<g transform="matrix(1 0 0 1 640 512)" id="background-logo"  >
<rect style="stroke: none; stroke-width: 0; stroke-dasharray: none; stroke-linecap: butt; stroke-dashoffset: 0; stroke-linejoin: miter; stroke-miterlimit: 4; fill: rgb(255,255,255); fill-opacity: 0; fill-rule: nonzero; opacity: 1;"  paint-order="stroke"  x="-640" y="-512" rx="0" ry="0" width="1280" height="1024" />
</g>
<g transform="matrix(1.9211538461538462 0 0 1.9211538461538462 621.7663771048029 472.20929651842465)" id="tagline-3ef5dce2-dab7-4a2e-a25a-ebbd3f8823b3-logo"  >
<g style=""  paint-order="stroke"   >
		<g transform="matrix(1 0 0 1 0 0)" id="tagline-3ef5dce2-dab7-4a2e-a25a-ebbd3f8823b3-logo-path-0"  >
<path style="stroke: none; stroke-width: 0; stroke-dasharray: none; stroke-linecap: butt; stroke-dashoffset: 0; stroke-linejoin: miter; stroke-miterlimit: 4; fill: rgb(35,134,206); fill-rule: nonzero; opacity: 1;"  paint-order="stroke"  transform=" translate(-16.814999999999998, 17.455)" d="M 2.64 0 L 11.08 0 L 11.08 -11.95 L 15.41 -11.95 L 21.78 0 L 30.99 0 L 23.74 -13.3 C 27.58 -15.03 29.8 -18.46 29.8 -23.28 C 29.8 -30.46 24.9 -34.91 17.06 -34.91 L 2.64 -34.91 Z M 11.08 -18.6 L 11.08 -28.11 L 15.24 -28.11 C 19.02 -28.11 21.05 -26.52 21.05 -23.28 C 21.05 -20.05 19.02 -18.6 15.24 -18.6 Z" stroke-linecap="round" />
</g>
</g>
</g>
</svg>